<?xml version="1.0" encoding="iso-8859-1"?>
<!-- Uploaded to: SVG Repo, www.svgrepo.com, Generator: SVG Repo Mixer Tools -->
<svg height="800px" width="800px" version="1.1" id="Layer_1" xmlns="http://www.w3.org/2000/svg" xmlns:xlink="http://www.w3.org/1999/xlink" 
	 viewBox="0 0 512 512" xml:space="preserve">
<g>
	<path style="fill:#FFFFFF;" d="M391.217,235.56H36.404c-14.472,0-26.205-11.732-26.205-26.204
		c0-14.473,11.733-26.205,26.205-26.205h354.813c32.078,0,58.174-26.098,58.174-58.174s-26.098-58.174-58.174-58.174
		s-58.174,26.098-58.174,58.174c0,14.473-11.733,26.205-26.205,26.205c-14.472,0-26.205-11.732-26.205-26.205
		c0-60.976,49.608-110.584,110.584-110.584S501.801,64,501.801,124.976S452.193,235.56,391.217,235.56z"/>
	<path style="fill:#FFFFFF;" d="M391.217,497.608c-60.976,0-110.584-49.608-110.584-110.584c0-14.473,11.733-26.205,26.205-26.205
		c14.472,0,26.205,11.732,26.205,26.205c0,32.077,26.098,58.174,58.174,58.174s58.174-26.098,58.174-58.174
		s-26.098-58.174-58.174-58.174H36.404c-14.472-0.001-26.205-11.733-26.205-26.206c0-14.473,11.733-26.205,26.205-26.205h354.813
		c60.976,0,110.584,49.609,110.584,110.585S452.193,497.608,391.217,497.608z"/>
</g>
</svg>