<?xml version="1.0" encoding="UTF-8"?>
<svg id="_Слой_1" data-name="Слой 1" xmlns="http://www.w3.org/2000/svg" xmlns:xlink="http://www.w3.org/1999/xlink" viewBox="0 0 510.31 297.25">
  <defs>
    <style>
      .cls-1 {
        fill: url(#_Безымянный_градиент_104);
      }

      .cls-1, .cls-2 {
        stroke-width: 0px;
      }

      .cls-2 {
        fill: url(#_Безымянный_градиент_103);
      }
    </style>
    <linearGradient id="_Безымянный_градиент_104" data-name="Безымянный градиент 104" x1="349.05" y1="194.81" x2="451.52" y2="53.77" gradientUnits="userSpaceOnUse">
      <stop offset="0" stop-color="#f6e546"/>
      <stop offset="1" stop-color="#ede061"/>
    </linearGradient>
    <linearGradient id="_Безымянный_градиент_103" data-name="Безымянный градиент 103" x1="23.74" y1="91.84" x2="494.55" y2="288.69" gradientUnits="userSpaceOnUse">
      <stop offset="0" stop-color="#5c6eb1"/>
      <stop offset=".02" stop-color="#5973b5"/>
      <stop offset=".13" stop-color="#4f8bcb"/>
      <stop offset=".26" stop-color="#479edc"/>
      <stop offset=".41" stop-color="#42abe8"/>
      <stop offset=".61" stop-color="#3eb2ef"/>
      <stop offset="1" stop-color="#3eb5f1"/>
    </linearGradient>
  </defs>
  <circle class="cls-1" cx="400.28" cy="124.29" r="87.16"/>
  <path class="cls-2" d="M510.31,235.27c0,10.93-2.84,21.22-7.82,30.16-8.66,15.53-23.83,26.94-41.81,30.56-2.2.47-4.47.78-6.76,1H99.99c-2.22.17-4.47.25-6.74.25-20.12,0-38.74-6.38-53.97-17.2l-.02-.02c-3.81-2.71-7.41-5.7-10.76-8.94-4.43-4.26-8.43-8.96-11.92-14.04-2.69-3.83-5.06-7.9-7.14-12.16-2.65-5.38-4.79-11.08-6.33-16.99-1.21-4.49-2.05-9.11-2.56-13.83-.36-3.33-.55-6.69-.55-10.1,0-2.9.13-5.76.38-8.6.44-4.74,1.23-9.38,2.35-13.87,1.48-5.99,3.54-11.73,6.1-17.2,2.01-4.26,4.32-8.35,6.95-12.22,3.49-5.23,7.52-10.1,12.01-14.49,3.33-3.3,6.93-6.35,10.74-9.13,4.91-3.58,10.21-6.69,15.8-9.26,4.24-1.95,8.64-3.6,13.2-4.89,4.66-1.33,9.49-2.33,14.42-2.92.78-4.13,1.78-8.2,2.94-12.18,3.45-12.01,8.51-23.32,14.93-33.74,6.82-11.06,15.14-21.07,24.72-29.76,7.03-6.4,14.74-12.07,22.98-16.9,9.81-5.76,20.4-10.34,31.58-13.51,8.32-2.39,16.99-4,25.88-4.79,3.96-.34,7.94-.51,11.99-.51,8.39,0,16.58.74,24.57,2.18,8.47,1.55,16.69,3.85,24.55,6.86,10.34,3.94,20.06,9.09,29,15.29,6.95,4.81,13.45,10.23,19.38,16.22,7.75,7.77,14.55,16.48,20.25,25.93,4.41,7.29,8.15,15,11.14,23.07,2.54,6.82,4.55,13.89,5.99,21.18.47-.02.93-.02,1.4-.02,5.8,0,11.5.53,17.01,1.57,10.78,1.97,20.91,5.8,30.03,11.18,10.95,6.38,20.46,14.93,27.96,25.08,5.42,7.33,9.81,15.46,12.9,24.23.13.3.23.61.34.91,2.25-.25,4.53-.38,6.84-.38,18.81,0,35.65,8.37,47,21.6,6.97,8.07,11.84,17.94,13.89,28.81.72,3.75,1.08,7.6,1.08,11.56Z"/>
</svg>